
        <svg width="400px" height="400px" viewBox="0 0 400 400" version="1.1" xmlns="http://www.w3.org/2000/svg" xmlns:xlink="http://www.w3.org/1999/xlink">
          <defs>
            <linearGradient x1="0%" y1="50%" x2="100%" y2="50%" id="shadeGradientLight">
              <stop stop-color="#e0dde0" offset="0%"></stop>
              <stop stop-color="#c2bfc2" offset="16.67%"></stop>
              <stop stop-color="#a3a0a3" offset="33.33%"></stop>
              <stop stop-color="#848285" offset="50%"></stop>
              <stop stop-color="#656366" offset="66.67%"></stop>
              <stop stop-color="#474548" offset="83.33%"></stop>
              <stop stop-color="#282629" offset="100%"></stop>
            </linearGradient>
            <linearGradient x1="0%" y1="50%" x2="100%" y2="50%" id="shadeGradientDark">
              <stop stop-color="#434953" offset="0%"></stop>
              <stop stop-color="#63686f" offset="16.67%"></stop>
              <stop stop-color="#82868c" offset="33.33%"></stop>
              <stop stop-color="#a1a4a9" offset="50%"></stop>
              <stop stop-color="#c0c2c6" offset="66.67%"></stop>
              <stop stop-color="#e0e1e2" offset="83.33%"></stop>
              <stop stop-color="#ffffff" offset="100%"></stop>
            </linearGradient>
          </defs>
          <g id="light">
            <rect fill="#fffcff" x="0" y="0" width="400" height="200"></rect>
            <rect fill="#f03e4d" x="28" y="28" width="74" height="37"></rect>
            <rect fill="#f37735" x="118" y="28" width="74" height="37"></rect>
            <rect fill="#eeba21" x="208" y="28" width="74" height="37"></rect>
            <rect fill="#97bd2d" x="298" y="28" width="74" height="37"></rect>
            <rect fill="#1fc598" x="28" y="81" width="74" height="37"></rect>
            <rect fill="#53a6e1" x="118" y="81" width="74" height="37"></rect>
            <rect fill="#bf65f0" x="208" y="81" width="74" height="37"></rect>
            <rect fill="#ee4eb8" x="298" y="81" width="74" height="37"></rect>
            <rect fill="url(#shadeGradientLight)" x="28" y="134" width="344" height="37"></rect>
          </g>
          <g id="dark" transform="translate(0.000000, 200.000000)">
            <rect fill="#242b36" x="0" y="0" width="400" height="200"></rect>
            <rect fill="#fd2e59" x="28" y="28" width="74" height="37"></rect>
            <rect fill="#ff716a" x="118" y="28" width="74" height="37"></rect>
            <rect fill="#ffbf40" x="208" y="28" width="74" height="37"></rect>
            <rect fill="#6ccc2d" x="298" y="28" width="74" height="37"></rect>
            <rect fill="#21c7ca" x="28" y="81" width="74" height="37"></rect>
            <rect fill="#3b96ff" x="118" y="81" width="74" height="37"></rect>
            <rect fill="#8394ff" x="208" y="81" width="74" height="37"></rect>
            <rect fill="#ff1aba" x="298" y="81" width="74" height="37"></rect>
            <rect fill="url(#shadeGradientDark)" x="28" y="134" width="344" height="37"></rect>
          </g>
        </svg>
      