<?xml version="1.0" encoding="UTF-8" standalone="no"?>
<!-- Created with Inkscape (http://www.inkscape.org/) -->

<svg
   version="1.0"
   width="22"
   height="22"
   id="svg2"
   inkscape:version="1.1.1 (3bf5ae0d25, 2021-09-20)"
   sodipodi:docname="restore.svg"
   xmlns:inkscape="http://www.inkscape.org/namespaces/inkscape"
   xmlns:sodipodi="http://sodipodi.sourceforge.net/DTD/sodipodi-0.dtd"
   xmlns:xlink="http://www.w3.org/1999/xlink"
   xmlns="http://www.w3.org/2000/svg"
   xmlns:svg="http://www.w3.org/2000/svg"
   xmlns:rdf="http://www.w3.org/1999/02/22-rdf-syntax-ns#"
   xmlns:cc="http://creativecommons.org/ns#"
   xmlns:dc="http://purl.org/dc/elements/1.1/">
  <sodipodi:namedview
     pagecolor="#000000"
     bordercolor="#666666"
     borderopacity="1"
     objecttolerance="10"
     gridtolerance="10"
     guidetolerance="10"
     inkscape:pageopacity="1"
     inkscape:pageshadow="2"
     inkscape:window-width="951"
     inkscape:window-height="1044"
     id="namedview32"
     showgrid="true"
     inkscape:zoom="11.313709"
     inkscape:cx="20.01996"
     inkscape:cy="8.0875335"
     inkscape:window-x="6"
     inkscape:window-y="6"
     inkscape:window-maximized="1"
     inkscape:current-layer="svg2"
     inkscape:snap-bbox="true"
     inkscape:bbox-paths="true"
     inkscape:bbox-nodes="true"
     inkscape:snap-bbox-edge-midpoints="true"
     inkscape:snap-bbox-midpoints="true"
     inkscape:object-paths="true"
     inkscape:snap-intersection-paths="true"
     inkscape:object-nodes="true"
     inkscape:snap-smooth-nodes="true"
     inkscape:snap-midpoints="true"
     inkscape:snap-object-midpoints="true"
     inkscape:snap-center="true"
     fit-margin-top="0"
     fit-margin-left="0"
     fit-margin-right="0"
     fit-margin-bottom="0"
     inkscape:pagecheckerboard="0">
    <inkscape:grid
       type="xygrid"
       id="grid3218"
       empspacing="5"
       visible="true"
       enabled="true"
       snapvisiblegridlinesonly="true"
       originx="-25"
       originy="21"
       spacingx="1"
       spacingy="1" />
  </sodipodi:namedview>
  <metadata
     id="metadata11">
    <rdf:RDF>
      <cc:Work
         rdf:about="">
        <dc:format>image/svg+xml</dc:format>
        <dc:type
           rdf:resource="http://purl.org/dc/dcmitype/StillImage" />
        <dc:title />
      </cc:Work>
    </rdf:RDF>
  </metadata>
  <defs
     id="defs4" />
  <g
     id="active-center"
     inkscape:label="#g3851"
     transform="translate(-14,3)">
    <rect
       y="-3"
       x="-52"
       height="22"
       width="22"
       id="rect3853"
       style="opacity:0.00100002;fill:#ffffff;fill-opacity:0.44581496;fill-rule:nonzero;stroke:none" />
    <path
       inkscape:connector-curvature="0"
       style="color:#000000;fill:#f1f3f5;fill-opacity:0.90288714000000003;fill-rule:nonzero;stroke:none;stroke-width:2.20000004999999987;marker:none;visibility:visible;display:inline;overflow:visible;enable-background:accumulate"
       d="m -46,5 0,1 9,0 0,5 1,0 0,-6 z m 0,0 0,5 0,1 1,0 9,0 0,-1 -9,0 0,-5 z"
       id="rect4094"
       sodipodi:nodetypes="cccccccccccccccc" />
  </g>
  <g
     transform="translate(17,3)"
     id="hover-center"
     inkscape:label="#g3845">
    <rect
       y="-3"
       x="-39"
       height="22"
       width="22"
       id="rect3853-0"
       style="opacity:0.00100002;fill:#ffffff;fill-opacity:0.44581496;fill-rule:nonzero;stroke:none" />
    <path
       inkscape:connector-curvature="0"
       style="color:#000000;fill:#21c7ca;fill-opacity:1;fill-rule:nonzero;stroke:none;stroke-width:2;marker:none;visibility:visible;display:inline;overflow:visible;enable-background:accumulate"
       d="m -33,5 0,1 9,0 0,5 1,0 0,-6 z m 0,0 0,5 0,1 1,0 9,0 0,-1 -9,0 0,-5 z"
       id="rect4094-9"
       sodipodi:nodetypes="cccccccccccccccc" />
  </g>
  <g
     transform="translate(1,3)"
     id="inactive-center"
     inkscape:label="#g3857"
     style="opacity:0.5">
    <rect
       y="-3"
       x="-45"
       height="22"
       width="22"
       id="rect3853-1"
       style="opacity:0.00100002;fill:#ffffff;fill-opacity:0.44581496;fill-rule:nonzero;stroke:none" />
    <path
       inkscape:connector-curvature="0"
       style="color:#000000;fill:#f1f3f5;fill-opacity:0.90288714000000003;fill-rule:nonzero;stroke:none;stroke-width:2.20000004999999987;marker:none;visibility:visible;display:inline;overflow:visible;enable-background:accumulate"
       d="m -39,5 0,1 9,0 0,5 1,0 0,-6 z m 0,0 0,5 0,1 1,0 9,0 0,-1 -9,0 0,-5 z"
       id="rect4094-7"
       sodipodi:nodetypes="cccccccccccccccc" />
  </g>
  <g
     id="pressed-center"
     transform="translate(25,3)"
     inkscape:label="#g3841">
    <rect
       y="-3"
       x="-25"
       height="22"
       width="22"
       id="rect3853-4"
       style="opacity:0.00100002;fill:#ffffff;fill-opacity:0.44581496;fill-rule:nonzero;stroke:none" />
    <path
       inkscape:connector-curvature="0"
       style="color:#000000;fill:#21c7ca;fill-opacity:1;fill-rule:nonzero;stroke:none;stroke-width:2;marker:none;visibility:visible;display:inline;overflow:visible;enable-background:accumulate"
       d="m -19,5 0,1 9,0 0,5 1,0 0,-6 z m 0,0 0,5 0,1 1,0 9,0 0,-1 -9,0 0,-5 z"
       id="rect4094-74"
       sodipodi:nodetypes="cccccccccccccccc" />
  </g>
  <use
     x="0"
     y="0"
     xlink:href="#active-center"
     id="deactivated-center"
     transform="translate(88,0)"
     width="22"
     height="22"
     inkscape:label="#use3767"
     style="opacity:0.17944252" />
  <use
     x="0"
     y="0"
     xlink:href="#active-center"
     id="deactivated-inactive-center"
     transform="translate(110,0)"
     width="22"
     height="22"
     inkscape:label="#use3767"
     style="opacity:0.13414636" />
</svg>
